<svg xmlns="http://www.w3.org/2000/svg" width="411.85" height="75.74" viewBox="0 0 108.969 20.039"><defs><path id="a" d="M32.031 47.277h205.925v98.708H32.031z"/></defs><g style="line-height:0%;-inkscape-font-specification:'Helvetica LT Std Condensed';white-space:pre;shape-inside:url(#a)"><path d="M1.792.152v19.755H.132V.152zm11.045 1.225v3.067h4.032v1.38h-4.032v5.865q0 1.196.453 1.668.454.473 1.582.473h1.997v1.418h-2.17q-1.997 0-2.817-.8-.82-.801-.82-2.76V5.824H8.178v-1.38h2.884V1.377zm12.742 8.44h-.588q-1.553 0-2.344.55-.781.54-.781 1.62 0 .975.588 1.515.589.54 1.63.54 1.467 0 2.306-1.012.84-1.023.849-2.817v-.396zm3.444-.733v6.164h-1.784v-1.601q-.57.965-1.437 1.428-.859.453-2.094.453-1.65 0-2.633-.926-.984-.936-.984-2.499 0-1.803 1.206-2.74 1.215-.935 3.56-.935h2.382v-.28q-.01-1.292-.656-1.87-.646-.59-2.064-.59-.907 0-1.833.261-.926.26-1.804.762V4.936q.984-.376 1.881-.56.907-.192 1.756-.192 1.34 0 2.286.395.955.396 1.543 1.187.367.482.521 1.196.154.704.154 2.122zm10.534.772q0-2.064-.656-3.116-.656-1.051-1.939-1.051-1.292 0-1.958 1.06-.665 1.052-.665 3.107 0 2.045.665 3.106.666 1.061 1.958 1.061 1.283 0 1.94-1.051.655-1.052.655-3.116zm-5.218-4.032q.424-.791 1.167-1.216.752-.424 1.736-.424 1.949 0 3.068 1.505 1.119 1.495 1.119 4.128 0 2.672-1.13 4.196-1.118 1.515-3.076 1.515-.965 0-1.708-.415-.733-.424-1.176-1.225v1.36h-1.775V.239h1.775zM49.367.152v19.755h-1.658V.152zm11.287 11.18q0 1.196.434 1.804.443.607 1.302.607h2.074v1.505h-2.248q-1.591 0-2.47-1.022-.867-1.023-.867-2.894v-9.81h-2.846V.132h4.62zm8.199-6.888h4.543v9.425h3.521v1.38h-8.816v-1.38h3.52V5.824h-2.768zM71.621.239h1.775v2.247h-1.775zm14.933 9.52q0-1.996-.656-3.029-.646-1.041-1.89-1.041-1.303 0-1.988 1.041-.685 1.033-.685 3.03 0 1.996.685 3.048.695 1.041 2.007 1.041 1.225 0 1.87-1.051.657-1.051.657-3.039zm1.775 4.795q0 2.43-1.148 3.685-1.148 1.254-3.376 1.254-.733 0-1.534-.136-.8-.135-1.601-.395v-1.756q.945.444 1.717.656.771.213 1.418.213 1.437 0 2.093-.782.656-.781.656-2.479v-1.283q-.425.907-1.158 1.35-.733.444-1.784.444-1.89 0-3.02-1.514-1.128-1.515-1.128-4.052 0-2.546 1.128-4.06 1.13-1.515 3.02-1.515 1.042 0 1.765.415.724.414 1.177 1.283v-1.4h1.775zm11.98-6v6.694h-1.784V8.554q0-1.457-.511-2.142-.512-.685-1.602-.685-1.244 0-1.92.888-.665.878-.665 2.527v6.106h-1.775V4.444h1.775v1.62q.473-.925 1.283-1.398.81-.482 1.92-.482 1.65 0 2.46 1.09.82 1.08.82 3.28zm8.528-8.402v19.755h-1.66V.152z" style="-inkscape-font-specification:monospace" aria-label="|tab|lign|" font-size="19.756" font-family="monospace" letter-spacing="0" word-spacing="0" fill="#4d4d4d" stroke="#4d4d4d" stroke-width=".265" font-weight="400"/></g></svg>